# xmcd
#
# Track frame offsets:
# 150
# 3570
# 20689
# 32810
# 56400
# 77124
# 91367
# 113695
# 132260
# 157939
#
# Disc length: 2643 seconds
#
# Revision: 2
# Processed by: cddbd v1.4PL0 Copyright (c) Steve Scherf et al.
# Submitted via: Axialis_AX_CDPlayer 2.6
#
DISCID=730a510a
DTITLE=Stevie Ray Vaughan - Final Performance At Alpine Valley [CD1]
DYEAR=1900
DGENRE=
TTITLE0=Intro
TTITLE1=Collins Shuffle
TTITLE2=The House Is Rockin
TTITLE3=Tightrope
TTITLE4=The Things That I Used To Do
TTITLE5=Let Me Love You Baby
TTITLE6=Leave My Little Girl Alone
TTITLE7=Pride And Joy
TTITLE8=Wall Of Denial
TTITLE9=Riviera Paradise
EXTD=
EXTT0=
EXTT1=
EXTT2=
EXTT3=
EXTT4=
EXTT5=
EXTT6=
EXTT7=
EXTT8=
EXTT9=
PLAYORDER=
